<svg width="192" height="37" viewBox="0 0 192 37" fill="none" xmlns="http://www.w3.org/2000/svg">
<path d="M62.1248 0.468262V23.8408H55.5838V5.70659H46.713V23.831H40.2109V0.468262H62.1248Z" fill="#444444"/>
<path d="M88.8538 0.468251V23.8408H82.3518V5.70658H75.6451L75.5086 9.51096C75.2064 18.622 73.9781 24.231 68.0317 24.231C67.1349 24.231 66.1308 24.0944 65.0293 23.831L65.3997 18.4269C65.7019 18.4951 66.0041 18.5244 66.2966 18.5244C68.9968 18.5244 69.5037 15.0517 69.6987 9.77434L70.0301 0.458496H88.8538V0.468251Z" fill="#444444"/>
<path d="M92.3535 12.1545C92.3535 5.14079 97.8515 0 105.328 0C112.805 0 118.303 5.14079 118.303 12.1545C118.303 19.1682 112.795 24.309 105.328 24.309C97.8515 24.309 92.3535 19.1682 92.3535 12.1545ZM111.635 12.1545C111.635 8.116 108.867 5.47245 105.328 5.47245C101.79 5.47245 99.0213 8.10625 99.0213 12.1545C99.0213 16.193 101.79 18.8365 105.328 18.8365C108.867 18.8365 111.635 16.193 111.635 12.1545Z" fill="#444444"/>
<path d="M140.325 5.7066H133.189V23.831H126.687V5.7066H119.513V0.468262H140.335V5.7066H140.325Z" fill="#444444"/>
<path d="M152.802 14.8859H149.8V23.831H143.229V0.468262H149.8V9.54999H152.968L158.544 0.468262H165.485L158.173 11.7546L165.543 23.8408H158.105L152.802 14.8859Z" fill="#444444"/>
<path d="M166.04 12.1545C166.04 5.14079 171.548 0 179.015 0C186.492 0 191.99 5.14079 191.99 12.1545C191.99 19.1682 186.482 24.309 179.015 24.309C171.548 24.309 166.04 19.1682 166.04 12.1545ZM185.322 12.1545C185.322 8.116 182.553 5.47245 179.015 5.47245C175.476 5.47245 172.708 8.10625 172.708 12.1545C172.708 16.193 175.476 18.8365 179.015 18.8365C182.553 18.8365 185.322 16.193 185.322 12.1545Z" fill="#444444"/>
<path d="M40.2109 31.3912C40.2109 29.4695 41.5757 28.1233 43.4668 28.1233C44.4904 28.1233 45.3775 28.5135 45.9039 29.3036L45.4457 29.6353C44.9778 28.9817 44.2662 28.6696 43.4571 28.6696C41.9364 28.6696 40.8348 29.7523 40.8348 31.3814C40.8348 33.0104 41.9461 34.0932 43.4571 34.0932C44.2564 34.0932 44.9778 33.7811 45.4457 33.1275L45.9039 33.4592C45.3775 34.2396 44.4904 34.6395 43.4668 34.6395C41.5757 34.659 40.2109 33.3031 40.2109 31.3912Z" fill="black"/>
<path d="M51.8893 28.7181H49.3743V34.6003H48.7601V28.7181H46.2451V28.1621H51.8893V28.7181Z" fill="black"/>
<path d="M59.6292 31.3909C59.6292 33.3321 58.2644 34.6588 56.4513 34.6588C55.3205 34.6588 54.3554 34.1027 53.8387 33.137V36.9999H53.2246V28.1621H53.8192V29.6838C54.3262 28.6986 55.301 28.1133 56.461 28.1133C58.2547 28.1133 59.6292 29.4594 59.6292 31.3909ZM59.015 31.3909C59.015 29.7716 57.894 28.6791 56.4123 28.6791C54.9305 28.6791 53.8192 29.7814 53.8192 31.3909C53.8192 33.0102 54.9305 34.1027 56.4123 34.1027C57.8842 34.1027 59.015 33.0004 59.015 31.3909Z" fill="black"/>
<path d="M60.9844 31.3909C60.9844 29.479 62.3491 28.123 64.2013 28.123C66.0534 28.123 67.4182 29.479 67.4182 31.3909C67.4182 33.3028 66.0534 34.6588 64.2013 34.6588C62.3491 34.6588 60.9844 33.3028 60.9844 31.3909ZM66.7845 31.3909C66.7845 29.7716 65.6732 28.6791 64.1915 28.6791C62.7098 28.6791 61.5985 29.7814 61.5985 31.3909C61.5985 33.0102 62.7098 34.1027 64.1915 34.1027C65.683 34.1027 66.7845 33.0005 66.7845 31.3909Z" fill="black"/>
<path d="M69.4258 28.1719H70.0399V33.6638L74.6313 28.1719H75.1772V34.6101H74.5631V29.1181L69.9717 34.6101H69.4258V28.1719Z" fill="black"/>
<path d="M82.1374 28.7181H79.6223V34.6003H79.0082V28.7181H76.4932V28.1621H82.1374V28.7181Z" fill="black"/>
<path d="M88.6492 31.5372H83.1122C83.1707 33.0687 84.2917 34.1027 85.8417 34.1027C86.6508 34.1027 87.4112 33.8101 87.8986 33.2053L88.2593 33.615C87.6939 34.3076 86.8068 34.6588 85.832 34.6588C83.8823 34.6588 82.5176 33.3028 82.5176 31.3909C82.5176 29.479 83.8336 28.123 85.598 28.123C87.3624 28.123 88.6687 29.4595 88.6687 31.3714C88.6589 31.4104 88.6492 31.4689 88.6492 31.5372ZM83.122 31.0495H88.0545C87.9668 29.6546 86.953 28.6596 85.5883 28.6596C84.2138 28.6596 83.2194 29.6448 83.122 31.0495Z" fill="black"/>
<path d="M95.5317 28.1719V34.61H94.9176V28.7279H91.5642L91.4764 30.4447C91.3497 32.6981 91.106 34.6881 89.7608 34.6881C89.6048 34.6881 89.4293 34.6491 89.2344 34.6003L89.2929 34.0735C89.3903 34.1028 89.4976 34.1223 89.5853 34.1223C90.6869 34.1223 90.8038 32.2591 90.9013 30.396L91.0085 28.1719H95.5317Z" fill="black"/>
<path d="M103.233 32.5323C103.233 33.8979 102.317 34.6393 100.63 34.6295L98.2031 34.6003V28.1621H98.8173V30.4838L100.777 30.513C102.375 30.5228 103.233 31.2251 103.233 32.5323ZM102.6 32.5323C102.6 31.4885 101.937 31.0008 100.611 30.9812L98.8075 30.9715V34.1223L100.611 34.1516C101.917 34.1613 102.6 33.5955 102.6 32.5323Z" fill="black"/>
<path d="M105.017 28.1719H105.631V31.1081H109.998V28.1719H110.612V34.6101H109.998V31.6446H105.631V34.6101H105.017V28.1719Z" fill="black"/>
<path d="M117.884 30.5227V34.61H117.29V33.4589C116.88 34.2003 116.091 34.6588 114.969 34.6588C113.527 34.6588 112.649 33.9174 112.649 32.8249C112.649 31.8494 113.264 31.0202 115.057 31.0202H117.26V30.5032C117.26 29.3034 116.607 28.6693 115.35 28.6693C114.463 28.6693 113.663 29.001 113.127 29.479L112.815 29.0302C113.459 28.4645 114.394 28.1133 115.389 28.1133C116.997 28.1133 117.884 28.9327 117.884 30.5227ZM117.27 32.7078V31.4982H115.077C113.741 31.4982 113.273 32.0542 113.273 32.7956C113.273 33.6345 113.926 34.1515 115.057 34.1515C116.149 34.1515 116.9 33.6345 117.27 32.7078Z" fill="black"/>
<path d="M125.137 28.1719V34.61H124.572V32.3859H122.427C122.32 32.3859 122.203 32.3859 122.105 32.3762L120.516 34.61H119.834L121.501 32.2981C120.468 32.064 119.873 31.4007 119.873 30.3082C119.873 28.8547 120.926 28.1621 122.524 28.1621H125.137V28.1719ZM122.485 31.9177H124.572V28.7084H122.563C121.247 28.7084 120.487 29.1864 120.487 30.3374C120.487 31.4007 121.16 31.9177 122.485 31.9177Z" fill="black"/>
<path d="M133.15 31.6251H131.581V34.6101H130.967V28.1719H131.581V31.0983H133.15L135.578 28.1719H136.26L133.648 31.2934L136.455 34.6101H135.714L133.15 31.6251Z" fill="black"/>
<path d="M137.078 31.3909C137.078 29.479 138.443 28.123 140.295 28.123C142.147 28.123 143.512 29.479 143.512 31.3909C143.512 33.3028 142.147 34.6588 140.295 34.6588C138.443 34.6588 137.078 33.3028 137.078 31.3909ZM142.888 31.3909C142.888 29.7716 141.777 28.6791 140.295 28.6791C138.813 28.6791 137.702 29.7814 137.702 31.3909C137.702 33.0102 138.813 34.1027 140.295 34.1027C141.777 34.1027 142.888 33.0005 142.888 31.3909Z" fill="black"/>
<path d="M152.529 28.1719V34.6101H151.964V29.1571L149.166 33.7809H148.884L146.096 29.1669V34.6101H145.53V28.1719H146.135L149.049 33.0493L151.974 28.1719H152.529Z" fill="black"/>
<path d="M160.805 28.1719V34.6101H160.191V28.7279H155.805V34.6101H155.19V28.1719H160.805Z" fill="black"/>
<path d="M168.078 30.5227V34.61H167.483V33.4589C167.073 34.2003 166.284 34.6588 165.163 34.6588C163.72 34.6588 162.843 33.9174 162.843 32.8249C162.843 31.8494 163.457 31.0202 165.251 31.0202H167.454V30.5032C167.454 29.3034 166.801 28.6693 165.543 28.6693C164.656 28.6693 163.857 29.001 163.32 29.479L163.008 29.0302C163.652 28.4645 164.588 28.1133 165.582 28.1133C167.19 28.1133 168.078 28.9327 168.078 30.5227ZM167.463 32.7078V31.4982H165.27C163.935 31.4982 163.467 32.0542 163.467 32.7956C163.467 33.6345 164.12 34.1515 165.251 34.1515C166.342 34.1515 167.093 33.6345 167.463 32.7078Z" fill="black"/>
<path d="M170.583 28.1719H171.197V31.1081H175.564V28.1719H176.178V34.6101H175.564V31.6446H171.197V34.6101H170.583V28.1719Z" fill="black"/>
<path d="M178.84 28.1719H179.454V33.6638L184.045 28.1719H184.591V34.6101H183.977V29.1181L179.386 34.6101H178.84V28.1719Z" fill="black"/>
<path d="M191.999 28.1719V34.61H191.434V32.3859H189.289C189.182 32.3859 189.065 32.3859 188.968 32.3762L187.379 34.61H186.696L188.363 32.2981C187.33 32.064 186.735 31.4007 186.735 30.3082C186.735 28.8547 187.788 28.1621 189.387 28.1621H191.999V28.1719ZM189.348 31.9177H191.434V28.7084H189.426C188.11 28.7084 187.349 29.1864 187.349 30.3374C187.349 31.4007 188.032 31.9177 189.348 31.9177Z" fill="black"/>
<path d="M4.57189 11.179H0V19.5291H4.57189V11.179Z" fill="#EDCA4B"/>
<path d="M27.4705 11.179H7.18457V19.5291H27.4705V11.179Z" fill="#EDCA4B"/>
<path d="M34.6647 0H18.6387V8.56472H34.6647V0Z" fill="#EDCA4B"/>
<path d="M34.6548 22.1338H0V34.6785H34.6548V22.1338Z" fill="#EDCA4B"/>
<path d="M16.026 0H0V8.56472H16.026V0Z" fill="#EDCA4B"/>
<path d="M34.6549 11.179H30.083V19.5291H34.6549V11.179Z" fill="#EDCA4B"/>
</svg>